<?xml version="1.0" encoding="UTF-8"?>
<svg version="1.1" xmlns="http://www.w3.org/2000/svg" width="736" height="736">
<path d="M0 0 C242.88 0 485.76 0 736 0 C736 242.88 736 485.76 736 736 C731.31411377 731.98352609 726.85243121 727.99584972 722.51641178 723.63945961 C721.90052034 723.02472202 721.28462891 722.40998443 720.65007409 721.77661842 C718.59475014 719.72393334 716.54300126 717.66771266 714.4912262 715.61148071 C713.00047003 714.1211608 711.50949405 712.63106074 710.01831764 711.14116132 C705.92731731 707.05239518 701.83943854 702.96052058 697.75206435 698.86812997 C693.34155013 694.45329602 688.92814504 690.04135367 684.51509094 685.62905884 C676.87154355 677.98603571 669.22981179 670.34120223 661.58935738 662.69508743 C653.57750177 654.67731153 645.56461003 646.66057348 637.55033684 638.64521408 C637.05173317 638.14654168 636.55312951 637.64786928 636.03941665 637.13408559 C633.50717788 634.60150848 630.97492063 632.06894985 628.44265627 629.53639834 C610.51421295 611.6058555 592.5880884 593.67299612 574.66333008 575.73876953 C557.2514196 558.31767231 539.83844885 540.89763599 522.42407227 523.47900391 C521.32869334 522.38335434 520.23331444 521.28770474 519.13793558 520.19205511 C510.23728628 511.28921698 501.33656383 502.38645198 492.43582366 493.4837047 C451.28726006 452.32575674 410.14404279 411.16246825 369 370 C368.67 490.45 368.34 610.9 368 735 C363.8016307 732.90081535 361.07222442 730.34926168 357.82308578 727.07197475 C356.89431069 726.14711058 356.89431069 726.14711058 355.94677246 725.20356229 C353.85977788 723.12289639 351.78002702 721.03513582 349.70013428 718.94737244 C348.19568019 717.44450565 346.69078852 715.9420768 345.18549562 714.44005018 C341.03984134 710.30082818 336.90047823 706.15536365 332.76208925 702.00887954 C328.30218107 697.54240869 323.83652884 693.08168744 319.37158203 688.62025452 C311.63296543 680.88610323 303.89804334 673.14827557 296.16576385 665.40778923 C288.05467028 657.28808845 279.94173289 649.17023794 271.82624054 641.05493355 C271.32188527 640.55058592 270.81753 640.0462383 270.29789124 639.52660742 C268.25070153 637.47945862 266.20349948 635.43232217 264.15628058 633.38520257 C244.94473874 614.17456718 225.73863077 594.95850776 206.5352362 575.73972852 C189.45972373 558.65058661 172.38051585 541.56514709 155.29785156 524.4831543 C154.20066417 523.38600731 153.1034768 522.2888603 152.00628945 521.19171327 C151.46386991 520.64931408 150.92145037 520.10691488 150.36259387 519.54807935 C147.63234762 516.81793389 144.90210648 514.08778333 142.17187119 511.35762691 C141.36398629 510.54976709 141.36398629 510.54976709 140.5397805 509.72558687 C126.2797129 495.46588409 112.02209531 481.20373218 97.76531434 466.94074351 C97.25847399 466.43368288 96.75163363 465.92662225 96.22943448 465.40419615 C94.19115705 463.36503046 92.15287968 461.3258647 90.11461527 459.28668599 C83.01173303 452.18063926 75.90802157 445.07542245 68.80377775 437.97073698 C59.65245741 428.81882065 50.50288582 419.66516284 41.35614321 410.50867098 C36.94228245 406.09017702 32.52762102 401.67249088 28.11081696 397.25693893 C24.07489902 393.22210972 20.0412699 389.18500757 16.0095301 385.14600355 C14.5435078 383.67815621 13.07662584 382.21116692 11.60884115 380.74508189 C9.62811262 378.76639471 7.65043017 376.78471464 5.67354965 374.8021841 C5.0907113 374.22140107 4.50787295 373.64061804 3.90737283 373.04223552 C-0 369.11415491 -0 369.11415491 0 368 C120.78 367.67 241.56 367.34 366 367 C339.579375 340.59097656 313.15875 314.18195313 285.9375 286.97265625 C270.25279387 271.29275153 254.56812157 255.61281327 238.88407946 239.93224442 C229.68941542 230.7396217 220.49472805 221.54702231 211.29996881 212.3544948 C210.18771864 211.24251447 209.0754692 210.1305334 207.96322051 209.0185516 C190.21518101 191.27478294 172.46552435 173.53263303 154.71502648 155.7913237 C136.4797719 137.5654915 118.24614721 119.33803028 100.01458726 101.10850225 C97.44261262 98.53681579 94.87061926 95.96514807 92.2986145 93.39349174 C91.79238143 92.88732609 91.28614835 92.38116044 90.76457488 91.85965643 C82.59828636 83.69455206 74.43026899 75.53117924 66.26161221 67.36844424 C58.05986851 59.1725731 49.85996986 50.97486027 41.66185641 42.77535779 C37.21564223 38.3284998 32.76859879 33.88247904 28.31940079 29.43860626 C24.25373674 25.37777319 20.19034279 21.31468345 16.12881482 17.24971371 C14.65190876 15.77238166 13.17414018 14.29591134 11.69546592 12.8203491 C9.70000276 10.82884473 7.70758154 8.83434819 5.71595764 6.83900547 C5.12876721 6.25444205 4.54157678 5.66987863 3.9365927 5.06760117 C0 1.1141458 0 1.1141458 0 0 Z M368 1 C368 122.11 368 243.22 368 368 C489.11 368 610.22 368 735 368 C730.98424099 363.31494782 726.99687026 358.85287314 722.64225292 354.51641178 C722.02781493 353.90052034 721.41337693 353.28462891 720.7803196 352.65007409 C718.72863952 350.59475565 716.67343172 348.54300255 714.61820984 346.4912262 C713.12860443 345.00046813 711.639217 343.50949221 710.15002853 342.01831764 C706.06319769 337.92731366 701.97325542 333.8394328 697.88278902 329.75206435 C693.46999649 325.34153377 689.06008162 320.92812755 684.64979553 316.51509094 C676.51258241 308.37368729 668.37309454 300.23456359 660.23241725 292.09662413 C652.71540054 284.58212313 645.19931414 277.06669318 637.6841526 269.55033684 C637.18562532 269.05173317 636.68709805 268.55312951 636.17346388 268.03941665 C634.1498377 266.01547913 632.12621505 263.99153808 630.10259821 261.96759121 C611.12694455 242.98887966 592.14837758 224.01308379 573.16850332 205.03859321 C556.29469759 188.16953736 539.42348504 171.29789212 522.55444336 154.42407227 C503.60554877 135.46982834 484.65504655 116.51719415 465.70193034 97.56717151 C463.6835399 95.5491018 461.6651534 93.53102814 459.64676857 91.5129528 C458.90128695 90.7675898 458.90128695 90.7675898 458.14074509 90.00716895 C450.62376387 82.49132696 443.10802061 74.97424851 435.59287071 67.45657539 C427.05565148 58.9165041 418.5166143 50.37825619 409.97529735 41.84228278 C405.61347096 37.48309483 401.25246704 33.12309209 396.89360428 28.76094055 C392.91073738 24.77511386 388.92560589 20.79156663 384.93858323 16.80989706 C383.48969601 15.36213533 382.04166861 13.91351254 380.59454747 12.46398551 C378.64148976 10.50792771 376.68543992 8.55491437 374.72854137 6.60270023 C374.15531911 6.02713681 373.58209685 5.45157338 372.99150422 4.85856864 C370.85116945 2.20765784 370.85116945 2.20765784 368 1 Z " fill="#F8EFE1" transform="translate(0,0)"/>
</svg>
